<svg xmlns="http://www.w3.org/2000/svg" viewBox="0 0 64 96">
  <!-- Fedecard - Jump pose (no sword - drawn dynamically) -->

  <!-- Cape (flowing up dramatically) -->
  <path d="M18 35 Q5 60 8 95 L55 95 Q60 60 48 35 Z" fill="#2a2a4a" stroke="#1a1a3a" stroke-width="1"/>
  <path d="M20 38 Q10 60 12 90 L52 90 Q58 60 46 38 Z" fill="#3a3a5a"/>

  <!-- Body/Armor (compact jumping pose) -->
  <rect x="24" y="25" width="16" height="32" rx="2" fill="#4a4a6a"/>
  <rect x="26" y="27" width="12" height="14" rx="1" fill="#5a5a7a"/>

  <!-- Belt -->
  <rect x="23" y="52" width="18" height="4" fill="#8b7355"/>
  <rect x="30" y="51" width="4" height="6" rx="1" fill="#c4a000"/>

  <!-- Legs (tucked for jump) -->
  <rect x="25" y="57" width="5" height="20" fill="#3a3a5a" transform="rotate(30 27 57)"/>
  <rect x="34" y="57" width="5" height="20" fill="#3a3a5a" transform="rotate(-30 36 57)"/>

  <!-- Boots (pointed down) -->
  <path d="M33 75 L30 82 L36 82 Z" fill="#2a2a3a"/>
  <path d="M28 72 L25 79 L31 79 Z" fill="#2a2a3a"/>

  <!-- Head -->
  <ellipse cx="32" cy="15" rx="10" ry="11" fill="#e8ddd0"/>

  <!-- Hair (short black) -->
  <path d="M22 11 Q22 3 32 2 Q42 3 42 11 L42 7 Q38 3 32 4 Q26 3 22 7 Z" fill="#1a1a1a"/>
  <path d="M24 9 Q24 5 32 4 Q40 5 40 9" fill="#1a1a1a"/>
  <path d="M22 11 L22 15 Q23 13 24 15 L24 11 Z" fill="#1a1a1a"/>
  <path d="M40 11 L40 15 Q41 13 42 15 L42 11 Z" fill="#1a1a1a"/>

  <!-- Face details -->
  <ellipse cx="28" cy="13" rx="1.5" ry="2" fill="#4a3a3a"/>
  <ellipse cx="36" cy="13" rx="1.5" ry="2" fill="#4a3a3a"/>
  <rect x="35" y="12" width="1" height="1" fill="#ff0000"/>
  <path d="M30 19 Q32 21 34 19" stroke="#8a6a6a" stroke-width="1" fill="none"/>

  <!-- Arms spread for balance -->
  <rect x="10" y="30" width="14" height="5" rx="2" fill="#e8ddd0"/>
  <rect x="40" y="30" width="14" height="5" rx="2" fill="#e8ddd0"/>

  <!-- Collar (dramatic) -->
  <path d="M18 28 L24 35 L24 28 Z" fill="#4a2a4a"/>
  <path d="M46 28 L40 35 L40 28 Z" fill="#4a2a4a"/>
</svg>
