<svg xmlns="http://www.w3.org/2000/svg" viewBox="0 0 64 96">
  <!-- Fedecard - Walk frame 2 (no sword - drawn dynamically) -->

  <!-- Cape (flowing back more) -->
  <path d="M20 25 Q0 50 8 90 L42 90 Q55 45 45 25 Z" fill="#2a2a4a" stroke="#1a1a3a" stroke-width="1"/>
  <path d="M22 28 Q5 50 12 85 L40 85 Q52 45 44 28 Z" fill="#3a3a5a"/>

  <!-- Body/Armor -->
  <rect x="26" y="28" width="16" height="35" rx="2" fill="#4a4a6a" transform="rotate(-5 34 45)"/>
  <rect x="28" y="30" width="12" height="15" rx="1" fill="#5a5a7a" transform="rotate(-5 34 37)"/>

  <!-- Belt -->
  <rect x="25" y="58" width="18" height="4" fill="#8b7355" transform="rotate(-5 34 60)"/>
  <rect x="32" y="57" width="4" height="6" rx="1" fill="#c4a000" transform="rotate(-5 34 60)"/>

  <!-- Legs (opposite walking pose) -->
  <rect x="28" y="63" width="5" height="24" fill="#3a3a5a" transform="rotate(-10 30 63)"/>
  <rect x="35" y="63" width="5" height="24" fill="#3a3a5a" transform="rotate(15 37 63)"/>

  <!-- Boots -->
  <path d="M24 85 L24 92 L31 92 L31 85 Z" fill="#2a2a3a"/>
  <path d="M38 87 L36 93 L44 93 L44 87 Z" fill="#2a2a3a"/>

  <!-- Head -->
  <ellipse cx="32" cy="18" rx="10" ry="12" fill="#e8ddd0"/>

  <!-- Hair (short black) -->
  <path d="M22 14 Q22 6 32 5 Q42 6 42 14 L42 10 Q38 6 32 7 Q26 6 22 10 Z" fill="#1a1a1a"/>
  <path d="M24 12 Q24 8 32 7 Q40 8 40 12" fill="#1a1a1a"/>
  <path d="M22 14 L22 18 Q23 16 24 18 L24 14 Z" fill="#1a1a1a"/>
  <path d="M40 14 L40 18 Q41 16 42 18 L42 14 Z" fill="#1a1a1a"/>

  <!-- Face details -->
  <ellipse cx="28" cy="16" rx="1.5" ry="2" fill="#4a3a3a"/>
  <ellipse cx="36" cy="16" rx="1.5" ry="2" fill="#4a3a3a"/>
  <rect x="35" y="15" width="1" height="1" fill="#ff0000"/>
  <path d="M30 22 Q32 24 34 22" stroke="#8a6a6a" stroke-width="1" fill="none"/>

  <!-- Collar -->
  <path d="M20 25 L24 30 L24 25 Z" fill="#4a2a4a"/>
  <path d="M44 25 L40 30 L40 25 Z" fill="#4a2a4a"/>
</svg>
