<svg xmlns="http://www.w3.org/2000/svg" viewBox="0 0 100 96">
  <!-- Fedecard - Attack pose (no sword - drawn dynamically) -->

  <!-- Cape (dramatic flow) -->
  <path d="M15 25 Q0 50 5 90 L40 90 Q50 50 40 25 Z" fill="#2a2a4a" stroke="#1a1a3a" stroke-width="1"/>
  <path d="M17 28 Q5 50 10 85 L38 85 Q48 50 38 28 Z" fill="#3a3a5a"/>

  <!-- Arm extended (holding invisible sword) -->
  <rect x="38" y="30" width="14" height="6" rx="2" fill="#e8ddd0"/>

  <!-- Body/Armor (lunging forward) -->
  <rect x="22" y="28" width="16" height="35" rx="2" fill="#4a4a6a" transform="rotate(15 30 45)"/>
  <rect x="24" y="30" width="12" height="15" rx="1" fill="#5a5a7a" transform="rotate(15 30 37)"/>

  <!-- Belt -->
  <rect x="22" y="58" width="18" height="4" fill="#8b7355" transform="rotate(10 31 60)"/>

  <!-- Legs (lunge stance) -->
  <rect x="26" y="63" width="5" height="24" fill="#3a3a5a" transform="rotate(25 28 63)"/>
  <rect x="33" y="63" width="5" height="24" fill="#3a3a5a" transform="rotate(-15 35 63)"/>

  <!-- Boots -->
  <path d="M35 87 L33 93 L41 93 L41 87 Z" fill="#2a2a3a"/>
  <path d="M22 82 L22 89 L29 87 L29 82 Z" fill="#2a2a3a"/>

  <!-- Head (looking forward) -->
  <ellipse cx="30" cy="18" rx="10" ry="12" fill="#e8ddd0"/>

  <!-- Hair (short black) -->
  <path d="M20 14 Q20 6 30 5 Q40 6 40 14 L40 10 Q36 6 30 7 Q24 6 20 10 Z" fill="#1a1a1a"/>
  <path d="M22 12 Q22 8 30 7 Q38 8 38 12" fill="#1a1a1a"/>
  <path d="M20 14 L20 18 Q21 16 22 18 L22 14 Z" fill="#1a1a1a"/>
  <path d="M38 14 L38 18 Q39 16 40 18 L40 14 Z" fill="#1a1a1a"/>

  <!-- Face details (determined expression) -->
  <ellipse cx="26" cy="16" rx="1.5" ry="2" fill="#4a3a3a"/>
  <ellipse cx="34" cy="16" rx="1.5" ry="2" fill="#4a3a3a"/>
  <rect x="33" y="15" width="1" height="1" fill="#ff0000"/>
  <path d="M28 22 L34 22" stroke="#8a6a6a" stroke-width="1.5" fill="none"/>

  <!-- Collar -->
  <path d="M18 25 L22 30 L22 25 Z" fill="#4a2a4a"/>
  <path d="M42 25 L38 30 L38 25 Z" fill="#4a2a4a"/>
</svg>
