<?xml version="1.0" encoding="utf-8" ?>
<svg baseProfile="full" height="1536px" version="1.1" viewBox="0 0 1024 1536" width="1024px" xmlns="http://www.w3.org/2000/svg" xmlns:ev="http://www.w3.org/2001/xml-events" xmlns:xlink="http://www.w3.org/1999/xlink"><defs /><g fill="none" stroke="#3a1a5a" stroke-width="1.5"><path d="M 549 1363 L 550 1362 L 551 1362 L 552 1363 L 551 1364 L 550 1364 Z" /><path d="M 447 1318 L 449 1320 L 449 1342 L 448 1343 L 448 1353 L 447 1354 L 447 1360 L 446 1361 L 446 1363 L 444 1365 L 444 1366 L 442 1368 L 441 1368 L 440 1367 L 440 1355 L 441 1354 L 441 1348 L 442 1347 L 442 1343 L 443 1342 L 443 1338 L 444 1337 L 444 1334 L 445 1333 L 444 1332 L 445 1331 L 445 1326 L 446 1325 L 446 1319 Z" /><path d="M 448 1313 L 449 1314 L 449 1318 L 448 1319 L 446 1317 L 447 1316 L 447 1314 Z" /><path d="M 464 1105 L 465 1104 L 466 1104 L 467 1105 L 466 1106 L 465 1106 Z" /><path d="M 513 714 L 513 718 L 512 719 L 511 718 L 507 718 L 506 719 L 502 719 L 501 720 L 495 720 L 494 721 L 492 721 L 491 722 L 490 722 L 489 723 L 488 722 L 487 723 L 486 723 L 485 722 L 486 721 L 485 720 L 486 719 L 486 717 L 487 716 L 491 716 L 492 715 L 493 716 L 494 716 L 495 715 L 501 715 L 502 714 L 508 714 L 509 713 L 512 713 Z" /><path d="M 480 707 L 481 708 L 481 713 L 480 714 L 477 714 L 476 713 L 476 711 L 477 710 L 477 709 L 479 707 Z" /><path d="M 517 707 L 519 705 L 521 705 L 522 706 L 520 708 L 518 708 Z" /><path d="M 485 712 L 486 711 L 486 710 L 485 709 L 486 708 L 486 706 L 485 705 L 486 704 L 491 704 L 492 703 L 502 703 L 503 704 L 504 703 L 505 703 L 506 704 L 511 704 L 512 705 L 514 705 L 515 706 L 514 707 L 513 707 L 513 708 L 512 709 L 510 709 L 509 710 L 506 710 L 505 711 L 504 710 L 501 710 L 500 711 L 493 711 L 492 712 L 488 712 L 487 713 L 486 713 Z" /><path d="M 503 675 L 504 674 L 507 674 L 508 675 L 507 676 L 504 676 Z" /><path d="M 498 675 L 499 674 L 502 674 L 503 675 L 502 676 L 499 676 Z" /><path d="M 491 675 L 492 674 L 497 674 L 498 675 L 498 676 L 497 677 L 496 676 L 492 676 Z" /><path d="M 501 670 L 502 669 L 503 669 L 504 670 L 503 671 L 502 671 Z" /><path d="M 571 632 L 571 634 L 569 637 L 569 639 L 567 641 L 566 644 L 564 646 L 562 650 L 557 655 L 556 657 L 555 657 L 550 662 L 549 662 L 538 671 L 528 676 L 516 685 L 513 691 L 513 699 L 512 700 L 508 700 L 507 699 L 506 700 L 504 699 L 503 700 L 501 699 L 496 699 L 495 700 L 494 699 L 490 699 L 489 700 L 486 700 L 485 699 L 486 698 L 486 696 L 485 695 L 486 694 L 486 688 L 485 687 L 486 686 L 486 683 L 485 682 L 487 679 L 491 679 L 492 680 L 497 680 L 498 679 L 500 679 L 501 680 L 502 679 L 508 679 L 509 678 L 512 678 L 526 672 L 531 668 L 535 667 L 539 665 L 541 663 L 545 662 L 552 656 L 553 656 L 559 650 L 563 642 L 567 637 L 569 632 L 570 631 Z" /><path d="M 441 639 L 442 638 L 443 638 L 444 637 L 446 637 L 451 634 L 453 634 L 454 633 L 455 634 L 457 632 L 458 633 L 459 632 L 461 632 L 462 631 L 464 631 L 465 630 L 470 630 L 471 629 L 473 629 L 474 628 L 478 628 L 479 629 L 479 631 L 480 632 L 480 637 L 481 638 L 481 640 L 482 641 L 482 644 L 483 645 L 484 648 L 486 650 L 486 651 L 495 659 L 498 660 L 500 662 L 503 663 L 505 665 L 503 667 L 502 666 L 501 667 L 499 667 L 498 668 L 495 668 L 494 669 L 489 669 L 488 670 L 480 670 L 479 669 L 476 669 L 475 668 L 472 668 L 470 666 L 469 667 L 468 666 L 465 665 L 463 663 L 460 662 L 457 659 L 456 659 L 446 649 L 446 648 L 445 647 L 445 646 L 444 645 L 443 642 L 441 640 Z" /><path d="M 482 628 L 483 627 L 493 627 L 494 626 L 495 627 L 496 627 L 497 626 L 498 627 L 517 627 L 518 628 L 526 628 L 527 629 L 534 629 L 535 630 L 536 629 L 537 630 L 544 631 L 545 632 L 547 632 L 548 633 L 550 633 L 551 634 L 552 634 L 556 638 L 556 643 L 555 644 L 555 646 L 554 647 L 553 647 L 553 648 L 543 658 L 542 658 L 540 660 L 539 660 L 538 661 L 536 661 L 535 662 L 532 663 L 530 665 L 528 665 L 527 666 L 525 666 L 524 667 L 522 667 L 521 668 L 519 668 L 518 669 L 513 669 L 512 670 L 509 670 L 508 671 L 506 671 L 505 670 L 506 669 L 507 669 L 508 668 L 511 668 L 512 667 L 511 666 L 511 664 L 510 663 L 509 663 L 508 662 L 508 661 L 506 661 L 504 659 L 501 658 L 489 648 L 489 647 L 485 642 L 485 641 L 486 640 L 484 638 L 485 637 L 483 635 L 484 634 L 484 633 L 482 631 L 483 630 L 482 629 Z" /><path d="M 536 625 L 537 624 L 539 624 L 540 625 L 539 626 L 537 626 Z" /><path d="M 477 622 L 477 623 L 476 624 L 474 624 L 473 625 L 470 625 L 469 626 L 465 626 L 464 627 L 461 627 L 460 628 L 458 628 L 457 629 L 456 629 L 455 630 L 452 630 L 451 631 L 449 631 L 447 633 L 446 632 L 446 631 L 448 629 L 450 629 L 451 628 L 452 628 L 453 627 L 456 627 L 457 626 L 459 626 L 460 625 L 461 625 L 462 624 L 465 624 L 466 623 L 468 623 L 469 622 L 473 622 L 474 621 L 476 621 Z" /><path d="M 480 621 L 481 620 L 490 620 L 491 619 L 492 620 L 493 619 L 507 619 L 508 620 L 509 619 L 511 619 L 512 620 L 521 620 L 522 621 L 525 621 L 526 622 L 531 622 L 532 623 L 535 623 L 536 624 L 536 625 L 535 626 L 534 626 L 533 625 L 527 625 L 526 624 L 525 624 L 524 625 L 523 624 L 518 624 L 517 623 L 509 623 L 508 622 L 507 623 L 505 623 L 504 622 L 503 623 L 496 623 L 495 622 L 494 623 L 493 622 L 492 622 L 491 623 L 483 623 L 482 624 L 481 624 L 480 623 L 481 622 Z" /><path d="M 475 619 L 476 618 L 477 618 L 478 619 L 477 620 L 476 620 Z" /><path d="M 427 617 L 428 618 L 428 619 L 429 620 L 429 623 L 430 624 L 430 627 L 431 628 L 431 629 L 432 630 L 432 632 L 434 634 L 433 635 L 432 635 L 431 634 L 430 634 L 429 633 L 429 632 L 427 630 L 427 629 L 426 628 L 426 624 L 425 623 L 425 622 L 426 621 L 426 618 Z" /><path d="M 556 601 L 557 600 L 558 600 L 559 601 L 558 602 L 557 602 Z" /><path d="M 475 601 L 475 606 L 476 607 L 476 608 L 475 609 L 476 610 L 476 615 L 477 616 L 475 618 L 474 617 L 473 617 L 470 619 L 465 619 L 464 620 L 461 620 L 460 621 L 458 621 L 456 623 L 453 623 L 451 625 L 450 625 L 449 626 L 448 625 L 446 627 L 445 627 L 444 628 L 443 628 L 441 630 L 441 631 L 440 632 L 440 634 L 439 635 L 437 633 L 437 632 L 436 631 L 436 629 L 435 628 L 435 626 L 434 625 L 434 624 L 432 621 L 432 617 L 431 616 L 431 615 L 433 613 L 433 611 L 434 610 L 435 610 L 436 609 L 438 609 L 439 608 L 441 608 L 444 606 L 447 606 L 448 605 L 451 605 L 452 604 L 455 604 L 456 603 L 461 603 L 462 602 L 465 602 L 466 601 L 472 601 L 473 600 L 474 600 Z" /><path d="M 553 600 L 554 599 L 556 599 L 557 600 L 556 601 L 554 601 Z" /><path d="M 448 601 L 450 599 L 453 599 L 454 600 L 453 601 L 451 601 L 450 602 L 449 602 Z" /><path d="M 551 599 L 552 598 L 553 598 L 554 599 L 553 600 L 552 600 Z" /><path d="M 453 599 L 454 598 L 456 598 L 457 599 L 456 600 L 454 600 Z" /><path d="M 479 600 L 480 599 L 489 599 L 490 598 L 491 599 L 493 598 L 494 599 L 495 598 L 503 598 L 504 597 L 505 598 L 516 598 L 517 599 L 522 599 L 524 598 L 525 599 L 529 599 L 530 600 L 532 600 L 533 599 L 534 600 L 538 600 L 539 601 L 544 601 L 548 603 L 551 603 L 552 604 L 557 605 L 559 607 L 565 610 L 566 612 L 569 614 L 570 616 L 570 620 L 567 626 L 567 628 L 564 634 L 562 636 L 560 633 L 559 633 L 555 629 L 554 629 L 553 627 L 552 627 L 550 625 L 544 622 L 541 622 L 540 621 L 538 621 L 534 619 L 531 619 L 530 618 L 526 618 L 525 617 L 521 617 L 520 616 L 515 616 L 514 615 L 513 616 L 512 615 L 496 615 L 495 616 L 494 615 L 492 616 L 491 615 L 490 616 L 489 615 L 488 616 L 482 616 L 481 618 L 480 617 L 480 613 L 479 612 L 480 610 L 479 609 Z" /><path d="M 476 595 L 474 597 L 472 597 L 471 598 L 470 597 L 467 597 L 466 598 L 462 598 L 461 599 L 458 599 L 457 598 L 458 597 L 460 597 L 461 596 L 464 596 L 465 595 L 473 595 L 474 594 L 475 594 Z" /><path d="M 479 594 L 482 592 L 492 592 L 493 591 L 498 591 L 499 592 L 500 591 L 505 591 L 506 590 L 507 591 L 508 591 L 509 590 L 510 590 L 511 591 L 510 592 L 511 592 L 512 591 L 524 591 L 525 592 L 532 592 L 533 593 L 537 593 L 538 594 L 540 594 L 541 593 L 543 595 L 544 595 L 545 596 L 548 596 L 549 597 L 551 597 L 552 598 L 551 599 L 548 599 L 547 598 L 544 598 L 543 597 L 541 597 L 540 596 L 535 596 L 534 595 L 533 595 L 532 596 L 531 595 L 528 595 L 527 594 L 526 595 L 525 594 L 488 594 L 487 595 L 486 594 L 484 594 L 483 595 L 480 595 Z" /><path d="M 484 539 L 485 540 L 485 544 L 484 545 L 484 547 L 483 548 L 482 553 L 480 556 L 480 558 L 479 559 L 479 565 L 477 568 L 477 569 L 478 570 L 477 571 L 477 578 L 476 579 L 476 589 L 475 590 L 468 591 L 465 593 L 464 592 L 463 593 L 459 593 L 458 594 L 456 594 L 455 595 L 453 595 L 452 596 L 449 596 L 448 597 L 433 604 L 431 606 L 430 606 L 429 605 L 429 597 L 430 596 L 430 595 L 429 594 L 429 592 L 430 591 L 430 589 L 431 588 L 430 587 L 431 586 L 432 579 L 435 575 L 435 573 L 436 572 L 438 567 L 442 563 L 442 562 L 443 561 L 444 561 L 445 560 L 445 559 L 452 552 L 453 552 L 461 546 L 463 546 L 467 543 L 470 543 L 471 542 L 473 542 L 474 541 L 477 541 L 477 540 L 478 539 L 479 540 L 482 540 L 483 539 Z" /><path d="M 490 539 L 493 537 L 494 538 L 495 537 L 497 537 L 498 538 L 499 537 L 514 537 L 515 538 L 522 538 L 530 541 L 531 540 L 536 543 L 539 543 L 543 546 L 544 545 L 546 548 L 551 551 L 555 555 L 564 567 L 568 575 L 568 578 L 570 582 L 571 590 L 572 591 L 571 592 L 572 594 L 574 595 L 572 596 L 572 605 L 571 606 L 562 598 L 558 596 L 556 596 L 547 591 L 543 591 L 539 589 L 537 590 L 535 588 L 534 589 L 533 588 L 527 588 L 526 587 L 524 588 L 523 587 L 508 587 L 507 586 L 506 587 L 493 587 L 492 588 L 491 587 L 490 588 L 482 588 L 480 589 L 479 588 L 480 587 L 480 585 L 479 584 L 480 583 L 480 578 L 481 577 L 481 574 L 480 573 L 482 570 L 482 564 L 484 561 L 486 553 L 488 550 L 488 548 L 490 544 L 489 542 L 491 541 Z" /><path d="M 473 537 L 474 536 L 475 536 L 476 537 L 475 538 L 474 538 Z" /><path d="M 475 536 L 477 534 L 478 534 L 479 533 L 481 533 L 482 534 L 480 536 L 478 536 L 477 537 L 476 537 Z" /><path d="M 483 527 L 484 526 L 484 525 L 485 524 L 485 523 L 486 522 L 486 516 L 487 515 L 488 515 L 490 517 L 491 517 L 492 516 L 495 516 L 496 515 L 499 515 L 500 514 L 513 514 L 514 515 L 519 515 L 520 516 L 522 516 L 523 517 L 523 521 L 524 522 L 524 523 L 522 525 L 521 524 L 520 525 L 519 525 L 518 524 L 517 525 L 516 524 L 500 524 L 499 525 L 495 525 L 494 526 L 490 526 L 489 527 L 486 527 L 485 528 L 484 528 Z" /><path d="M 522 504 L 522 510 L 520 512 L 517 512 L 516 511 L 512 511 L 511 510 L 510 510 L 509 511 L 508 510 L 499 510 L 498 511 L 496 511 L 495 512 L 492 512 L 491 511 L 492 510 L 492 509 L 496 505 L 497 505 L 499 503 L 500 503 L 502 501 L 504 501 L 505 500 L 507 500 L 507 499 L 508 498 L 509 499 L 515 499 L 516 500 L 517 500 L 518 501 L 519 501 Z" /><path d="M 489 504 L 489 503 L 490 502 L 490 489 L 489 488 L 489 487 L 490 486 L 491 486 L 493 488 L 496 488 L 497 489 L 508 489 L 509 488 L 510 489 L 517 489 L 518 488 L 520 488 L 521 487 L 522 487 L 523 488 L 522 489 L 522 495 L 521 496 L 521 497 L 520 498 L 519 497 L 519 496 L 516 496 L 515 495 L 507 495 L 506 496 L 503 496 L 502 497 L 501 497 L 500 498 L 499 498 L 498 499 L 497 499 L 496 500 L 495 500 L 490 505 Z" /><path d="M 524 477 L 524 481 L 522 483 L 520 483 L 519 484 L 516 484 L 515 485 L 512 485 L 511 486 L 510 485 L 509 485 L 508 486 L 507 485 L 497 485 L 496 484 L 495 484 L 494 483 L 495 482 L 495 480 L 498 477 L 499 477 L 500 476 L 501 476 L 502 475 L 503 475 L 504 474 L 506 474 L 507 473 L 510 473 L 511 472 L 515 472 L 516 473 L 519 473 L 520 474 L 521 474 Z" /><path d="M 525 464 L 525 470 L 526 471 L 525 472 L 524 472 L 522 470 L 521 470 L 520 469 L 516 469 L 515 468 L 510 468 L 509 469 L 505 469 L 504 470 L 503 470 L 502 471 L 500 471 L 499 472 L 498 472 L 497 473 L 496 473 L 491 478 L 490 477 L 490 465 L 491 464 L 492 464 L 493 465 L 494 464 L 495 465 L 512 465 L 513 464 L 523 464 L 524 463 Z" /><path d="M 495 459 L 497 457 L 499 457 L 500 456 L 501 456 L 502 457 L 503 456 L 509 456 L 510 457 L 512 457 L 513 458 L 514 457 L 515 457 L 516 458 L 520 458 L 521 459 L 521 460 L 520 461 L 519 460 L 518 461 L 517 460 L 512 460 L 511 461 L 496 461 L 495 460 Z" /><path d="M 489 445 L 490 444 L 491 445 L 491 446 L 490 447 L 489 446 Z" /><path d="M 486 442 L 487 443 L 487 444 L 486 445 L 486 458 L 484 460 L 483 459 L 482 459 L 481 458 L 479 458 L 478 457 L 479 456 L 478 457 L 477 456 L 476 456 L 475 455 L 476 454 L 476 452 L 475 451 L 480 446 L 481 446 L 483 444 L 484 444 Z" /><path d="M 538 447 L 538 450 L 537 451 L 537 452 L 532 457 L 531 457 L 529 459 L 527 459 L 525 457 L 525 456 L 524 456 L 523 455 L 519 455 L 518 454 L 515 454 L 514 453 L 512 453 L 511 452 L 501 452 L 500 453 L 496 453 L 495 454 L 494 454 L 492 456 L 490 456 L 489 455 L 491 453 L 490 452 L 493 449 L 494 449 L 496 447 L 497 447 L 498 446 L 499 446 L 500 445 L 502 445 L 503 444 L 504 444 L 505 443 L 506 444 L 507 443 L 509 443 L 510 442 L 511 443 L 512 442 L 515 442 L 516 441 L 518 441 L 519 440 L 520 441 L 521 441 L 522 440 L 530 440 L 531 441 L 533 441 L 534 442 L 535 442 L 536 443 L 536 444 L 537 445 L 537 446 Z" /><path d="M 507 419 L 508 418 L 510 420 L 510 421 L 509 422 L 507 420 Z" /><path d="M 507 276 L 508 277 L 508 288 L 509 289 L 509 300 L 510 301 L 509 302 L 510 303 L 510 360 L 511 361 L 510 362 L 510 369 L 511 370 L 511 394 L 512 395 L 511 396 L 511 400 L 512 401 L 512 414 L 511 415 L 507 412 L 499 412 L 498 411 L 498 404 L 499 403 L 498 401 L 499 400 L 499 388 L 500 387 L 499 386 L 500 384 L 499 382 L 500 381 L 500 373 L 501 372 L 501 370 L 500 369 L 501 368 L 501 364 L 500 363 L 501 362 L 501 341 L 502 340 L 501 339 L 502 338 L 501 336 L 502 335 L 502 330 L 501 329 L 502 328 L 502 307 L 503 306 L 502 305 L 503 303 L 502 302 L 503 301 L 503 299 L 502 298 L 503 297 L 503 295 L 502 294 L 503 293 L 503 286 L 505 282 L 505 279 Z" /><path d="M 504 241 L 506 243 L 505 244 L 505 245 L 506 246 L 506 248 L 505 249 L 506 250 L 506 262 L 505 263 L 504 262 L 503 262 L 502 261 L 500 261 L 498 259 L 498 256 L 497 255 L 497 251 L 498 250 L 498 249 L 499 248 L 499 246 L 500 245 L 500 244 L 501 243 L 502 243 Z" /><path d="M 508 74 L 493 417 L 514 427 L 472 450 L 480 522 L 431 570 L 421 620 L 482 678 L 444 1305 L 74 1311 L 438 1309 L 446 1371 L 486 728 L 505 722 L 531 1277 L 552 1379 L 566 1308 L 680 1312 L 686 1282 L 945 1290 L 682 1276 L 679 1308 L 552 1309 L 549 1358 L 516 700 L 571 644 L 576 587 L 549 544 L 488 533 L 529 526 L 542 451 L 533 436 L 488 443 L 518 428 Z" /></g></svg>