<svg xmlns="http://www.w3.org/2000/svg" viewBox="0 0 400 500">
  <g fill="none" stroke="#7eb8da" stroke-width="1.5" stroke-linecap="round" stroke-linejoin="round">

    <!-- Prudential-style tower (tall, rectangular with antenna) -->
    <rect x="30" y="100" width="70" height="400" rx="2"/>
    <!-- Setbacks -->
    <rect x="35" y="80" width="60" height="20"/>
    <rect x="40" y="60" width="50" height="20"/>
    <rect x="50" y="30" width="30" height="30"/>
    <!-- Antenna -->
    <line x1="65" y1="30" x2="65" y2="5"/>
    <line x1="60" y1="15" x2="70" y2="15"/>
    <!-- Vertical lines (facade detail) -->
    <line x1="45" y1="100" x2="45" y2="500"/>
    <line x1="65" y1="100" x2="65" y2="500"/>
    <line x1="85" y1="100" x2="85" y2="500"/>
    <!-- Windows rows -->
    <g>
      <rect x="38" y="120" width="8" height="12"/>
      <rect x="52" y="120" width="8" height="12"/>
      <rect x="66" y="120" width="8" height="12"/>
      <rect x="80" y="120" width="8" height="12"/>
    </g>
    <g>
      <rect x="38" y="150" width="8" height="12"/>
      <rect x="52" y="150" width="8" height="12"/>
      <rect x="66" y="150" width="8" height="12"/>
      <rect x="80" y="150" width="8" height="12"/>
    </g>
    <g>
      <rect x="38" y="180" width="8" height="12"/>
      <rect x="52" y="180" width="8" height="12"/>
      <rect x="66" y="180" width="8" height="12"/>
      <rect x="80" y="180" width="8" height="12"/>
    </g>
    <g>
      <rect x="38" y="210" width="8" height="12"/>
      <rect x="52" y="210" width="8" height="12"/>
      <rect x="66" y="210" width="8" height="12"/>
      <rect x="80" y="210" width="8" height="12"/>
    </g>
    <g>
      <rect x="38" y="250" width="8" height="12"/>
      <rect x="52" y="250" width="8" height="12"/>
      <rect x="66" y="250" width="8" height="12"/>
      <rect x="80" y="250" width="8" height="12"/>
    </g>
    <g>
      <rect x="38" y="290" width="8" height="12"/>
      <rect x="52" y="290" width="8" height="12"/>
      <rect x="66" y="290" width="8" height="12"/>
      <rect x="80" y="290" width="8" height="12"/>
    </g>
    <g>
      <rect x="38" y="330" width="8" height="12"/>
      <rect x="52" y="330" width="8" height="12"/>
      <rect x="66" y="330" width="8" height="12"/>
      <rect x="80" y="330" width="8" height="12"/>
    </g>
    <g>
      <rect x="38" y="370" width="8" height="12"/>
      <rect x="52" y="370" width="8" height="12"/>
      <rect x="66" y="370" width="8" height="12"/>
      <rect x="80" y="370" width="8" height="12"/>
    </g>
    <g>
      <rect x="38" y="410" width="8" height="12"/>
      <rect x="52" y="410" width="8" height="12"/>
      <rect x="66" y="410" width="8" height="12"/>
      <rect x="80" y="410" width="8" height="12"/>
    </g>
    <g>
      <rect x="38" y="450" width="8" height="12"/>
      <rect x="52" y="450" width="8" height="12"/>
      <rect x="66" y="450" width="8" height="12"/>
      <rect x="80" y="450" width="8" height="12"/>
    </g>

    <!-- Hancock-style tower (sleek, glass, parallelogram shape) -->
    <path d="M140 500 L150 80 L220 80 L230 500 Z"/>
    <!-- Horizontal bands -->
    <line x1="148" y1="120" x2="222" y2="120"/>
    <line x1="147" y1="160" x2="223" y2="160"/>
    <line x1="146" y1="200" x2="224" y2="200"/>
    <line x1="145" y1="240" x2="225" y2="240"/>
    <line x1="144" y1="280" x2="226" y2="280"/>
    <line x1="143" y1="320" x2="227" y2="320"/>
    <line x1="142" y1="360" x2="228" y2="360"/>
    <line x1="141" y1="400" x2="229" y2="400"/>
    <line x1="140" y1="440" x2="230" y2="440"/>
    <line x1="139" y1="480" x2="231" y2="480"/>
    <!-- Vertical center line -->
    <line x1="185" y1="80" x2="185" y2="500"/>
    <!-- Top detail -->
    <rect x="175" y="60" width="20" height="20"/>
    <line x1="185" y1="60" x2="185" y2="45"/>

    <!-- Custom House style tower (older, with clock tower top) -->
    <rect x="270" y="180" width="90" height="320" rx="2"/>
    <!-- Clock tower section -->
    <rect x="285" y="120" width="60" height="60"/>
    <rect x="295" y="90" width="40" height="30"/>
    <!-- Pyramidal top -->
    <path d="M295 90 L315 50 L335 90"/>
    <line x1="315" y1="50" x2="315" y2="35"/>
    <!-- Clock face -->
    <circle cx="315" cy="150" r="18"/>
    <line x1="315" y1="150" x2="315" y2="138"/>
    <line x1="315" y1="150" x2="325" y2="150"/>
    <!-- Facade details - columns -->
    <line x1="285" y1="180" x2="285" y2="500"/>
    <line x1="305" y1="180" x2="305" y2="500"/>
    <line x1="325" y1="180" x2="325" y2="500"/>
    <line x1="345" y1="180" x2="345" y2="500"/>
    <!-- Windows (arched style) -->
    <g>
      <path d="M278 210 L278 230 Q283 240 288 230 L288 210"/>
      <path d="M298 210 L298 230 Q303 240 308 230 L308 210"/>
      <path d="M318 210 L318 230 Q323 240 328 230 L328 210"/>
      <path d="M338 210 L338 230 Q343 240 348 230 L348 210"/>
    </g>
    <g>
      <path d="M278 270 L278 290 Q283 300 288 290 L288 270"/>
      <path d="M298 270 L298 290 Q303 300 308 290 L308 270"/>
      <path d="M318 270 L318 290 Q323 300 328 290 L328 270"/>
      <path d="M338 270 L338 290 Q343 300 348 290 L348 270"/>
    </g>
    <g>
      <path d="M278 330 L278 350 Q283 360 288 350 L288 330"/>
      <path d="M298 330 L298 350 Q303 360 308 350 L308 330"/>
      <path d="M318 330 L318 350 Q323 360 328 350 L328 330"/>
      <path d="M338 330 L338 350 Q343 360 348 350 L348 330"/>
    </g>
    <g>
      <path d="M278 390 L278 410 Q283 420 288 410 L288 390"/>
      <path d="M298 390 L298 410 Q303 420 308 410 L308 390"/>
      <path d="M318 390 L318 410 Q323 420 328 410 L328 390"/>
      <path d="M338 390 L338 410 Q343 420 348 410 L348 390"/>
    </g>
    <g>
      <path d="M278 450 L278 470 Q283 480 288 470 L288 450"/>
      <path d="M298 450 L298 470 Q303 480 308 470 L308 450"/>
      <path d="M318 450 L318 470 Q323 480 328 470 L328 450"/>
      <path d="M338 450 L338 470 Q343 480 348 470 L348 450"/>
    </g>
    <!-- Ornamental top details -->
    <rect x="278" y="180" width="74" height="8"/>
  </g>
</svg>