<svg xmlns="http://www.w3.org/2000/svg" viewBox="0 0 70 55">
  <!-- Elongated asteroid -->
  <defs>
    <radialGradient id="asteroidGrad3" cx="40%" cy="30%" r="70%">
      <stop offset="0%" style="stop-color:#c0b0a0"/>
      <stop offset="50%" style="stop-color:#908070"/>
      <stop offset="100%" style="stop-color:#605040"/>
    </radialGradient>
  </defs>

  <!-- Main elongated body -->
  <path d="M10 28 Q5 15 18 8 Q35 2 50 8 Q65 15 68 28 Q65 42 50 48 Q35 52 18 48 Q5 42 10 28"
        fill="url(#asteroidGrad3)"/>

  <!-- Craters -->
  <ellipse cx="25" cy="22" rx="8" ry="6" fill="#504030" opacity="0.5"/>
  <ellipse cx="24" cy="21" rx="5" ry="4" fill="#605040" opacity="0.4"/>

  <ellipse cx="50" cy="28" rx="9" ry="7" fill="#504030" opacity="0.5"/>
  <ellipse cx="49" cy="27" rx="6" ry="5" fill="#605040" opacity="0.4"/>

  <circle cx="35" cy="40" r="5" fill="#504030" opacity="0.4"/>
  <circle cx="15" cy="32" r="4" fill="#504030" opacity="0.4"/>
  <circle cx="58" cy="18" r="3" fill="#504030" opacity="0.4"/>

  <!-- Highlights -->
  <ellipse cx="20" cy="12" rx="6" ry="3" fill="#d0c0b0" opacity="0.4"/>
  <ellipse cx="45" cy="14" rx="5" ry="2" fill="#d0c0b0" opacity="0.3"/>

  <!-- Trailing debris -->
  <circle cx="2" cy="30" r="2" fill="#605040" opacity="0.6"/>
  <circle cx="5" cy="22" r="1.5" fill="#605040" opacity="0.5"/>
</svg>
