<svg xmlns="http://www.w3.org/2000/svg" viewBox="0 0 100 60">
  <!-- Character sleeping - lying on back, face up (neutral) -->
  <defs>
    <linearGradient id="skinGrad" x1="0%" y1="0%" x2="0%" y2="100%">
      <stop offset="0%" style="stop-color:#ffd5b8"/>
      <stop offset="100%" style="stop-color:#f4c4a0"/>
    </linearGradient>
    <linearGradient id="hairGrad" x1="0%" y1="0%" x2="0%" y2="100%">
      <stop offset="0%" style="stop-color:#4a3728"/>
      <stop offset="100%" style="stop-color:#2d1f15"/>
    </linearGradient>
    <linearGradient id="blanketGrad" x1="0%" y1="0%" x2="0%" y2="100%">
      <stop offset="0%" style="stop-color:#7a9fd4"/>
      <stop offset="100%" style="stop-color:#5a7fbc"/>
    </linearGradient>
  </defs>

  <!-- Blanket/body shape (lying flat) -->
  <ellipse cx="50" cy="48" rx="32" ry="10" fill="url(#blanketGrad)" opacity="0.9"/>

  <!-- Shoulders hint under blanket -->
  <ellipse cx="50" cy="42" rx="18" ry="6" fill="url(#blanketGrad)"/>

  <!-- Head (face up, centered) -->
  <ellipse cx="50" cy="28" rx="18" ry="15" fill="url(#skinGrad)"/>

  <!-- Hair -->
  <path d="M32 22 Q34 8 50 6 Q66 8 68 22 Q66 14 50 12 Q34 14 32 22" fill="url(#hairGrad)"/>
  <ellipse cx="35" cy="18" rx="5" ry="7" fill="url(#hairGrad)"/>
  <ellipse cx="65" cy="18" rx="5" ry="7" fill="url(#hairGrad)"/>

  <!-- Ears (both visible - face up) -->
  <ellipse cx="32" cy="28" rx="3" ry="5" fill="#f4c4a0"/>
  <ellipse cx="32" cy="28" rx="1.5" ry="3" fill="#e8b090"/>
  <ellipse cx="68" cy="28" rx="3" ry="5" fill="#f4c4a0"/>
  <ellipse cx="68" cy="28" rx="1.5" ry="3" fill="#e8b090"/>

  <!-- Closed eyes (sleeping) - curved down for "up" facing -->
  <path d="M40 26 Q44 30 48 26" stroke="#5c4033" stroke-width="2" fill="none" stroke-linecap="round"/>
  <path d="M52 26 Q56 30 60 26" stroke="#5c4033" stroke-width="2" fill="none" stroke-linecap="round"/>

  <!-- Eyelashes -->
  <path d="M39 25 L38 23" stroke="#5c4033" stroke-width="1" stroke-linecap="round"/>
  <path d="M44 24 L44 22" stroke="#5c4033" stroke-width="1" stroke-linecap="round"/>
  <path d="M49 25 L50 23" stroke="#5c4033" stroke-width="1" stroke-linecap="round"/>
  <path d="M51 25 L50 23" stroke="#5c4033" stroke-width="1" stroke-linecap="round"/>
  <path d="M56 24 L56 22" stroke="#5c4033" stroke-width="1" stroke-linecap="round"/>
  <path d="M61 25 L62 23" stroke="#5c4033" stroke-width="1" stroke-linecap="round"/>

  <!-- Eyebrows (relaxed) -->
  <path d="M38 20 Q44 18 50 20" stroke="#3d2817" stroke-width="1.5" fill="none" stroke-linecap="round"/>
  <path d="M50 20 Q56 18 62 20" stroke="#3d2817" stroke-width="1.5" fill="none" stroke-linecap="round"/>

  <!-- Nose -->
  <path d="M50 30 Q52 34 50 36" stroke="#d4a088" stroke-width="1.5" fill="none" stroke-linecap="round"/>

  <!-- Mouth (slightly open, peaceful) -->
  <ellipse cx="50" cy="40" rx="4" ry="2" fill="#c97878"/>

  <!-- Cheek blush -->
  <ellipse cx="38" cy="34" rx="5" ry="3" fill="#ffb8b8" opacity="0.4"/>
  <ellipse cx="62" cy="34" rx="5" ry="3" fill="#ffb8b8" opacity="0.4"/>

  <!-- Z's for sleeping -->
  <text x="72" y="12" font-family="Arial, sans-serif" font-size="8" fill="#a8d8ea" opacity="0.8">z</text>
  <text x="79" y="7" font-family="Arial, sans-serif" font-size="10" fill="#a8d8ea" opacity="0.6">z</text>
  <text x="87" y="2" font-family="Arial, sans-serif" font-size="12" fill="#a8d8ea" opacity="0.4">z</text>
</svg>
