<svg xmlns="http://www.w3.org/2000/svg" viewBox="0 0 64 96">
  <!-- Fedecard - Hurt/damaged pose -->

  <!-- Cape (thrown back) -->
  <path d="M25 30 Q10 50 5 90 L50 90 Q60 55 50 30 Z" fill="#2a2a4a" stroke="#1a1a3a" stroke-width="1"/>
  <path d="M27 33 Q15 50 10 85 L48 85 Q58 55 48 33 Z" fill="#3a3a5a"/>

  <!-- Body/Armor (recoiling back) -->
  <rect x="26" y="30" width="16" height="35" rx="2" fill="#4a4a6a" transform="rotate(-20 34 47)"/>
  <rect x="28" y="32" width="12" height="15" rx="1" fill="#5a5a7a" transform="rotate(-20 34 39)"/>

  <!-- Belt -->
  <rect x="25" y="60" width="18" height="4" fill="#8b7355" transform="rotate(-15 34 62)"/>

  <!-- Legs (staggering) -->
  <rect x="28" y="65" width="5" height="22" fill="#3a3a5a" transform="rotate(-10 30 65)"/>
  <rect x="36" y="65" width="5" height="22" fill="#3a3a5a" transform="rotate(5 38 65)"/>

  <!-- Boots -->
  <path d="M24 85 L24 92 L31 92 L31 85 Z" fill="#2a2a3a"/>
  <path d="M36 87 L36 94 L43 94 L43 87 Z" fill="#2a2a3a"/>

  <!-- Head (thrown back) -->
  <ellipse cx="34" cy="20" rx="10" ry="12" fill="#e8ddd0" transform="rotate(-15 34 20)"/>

  <!-- Hair (short black, wild) -->
  <path d="M24 16 Q24 8 34 7 Q44 8 44 16 L44 12 Q40 8 34 9 Q28 8 24 12 Z" fill="#1a1a1a"/>
  <path d="M26 14 Q26 10 34 9 Q42 10 42 14" fill="#1a1a1a"/>
  <path d="M24 16 L24 20 Q25 18 26 20 L26 16 Z" fill="#1a1a1a"/>
  <path d="M42 16 L42 20 Q43 18 44 20 L44 16 Z" fill="#1a1a1a"/>

  <!-- Face details (pained expression) -->
  <ellipse cx="30" cy="18" rx="1.5" ry="1" fill="#4a3a3a"/>
  <ellipse cx="38" cy="18" rx="1.5" ry="1" fill="#4a3a3a"/>
  <rect x="37" y="17" width="1" height="1" fill="#ff0000"/>
  <path d="M32 25 Q34 23 36 25" stroke="#8a6a6a" stroke-width="1.5" fill="none"/>

  <!-- Arms (defensive) -->
  <rect x="42" y="35" width="12" height="5" rx="2" fill="#e8ddd0" transform="rotate(-30 48 37)"/>
  <rect x="12" y="40" width="12" height="5" rx="2" fill="#e8ddd0" transform="rotate(20 18 42)"/>

  <!-- Impact effect -->
  <circle cx="45" cy="40" r="8" fill="none" stroke="#ff6666" stroke-width="2" opacity="0.7"/>
  <circle cx="45" cy="40" r="12" fill="none" stroke="#ff6666" stroke-width="1" opacity="0.4"/>

  <!-- Collar -->
  <path d="M22 28 L26 34 L26 28 Z" fill="#4a2a4a"/>
  <path d="M46 28 L42 34 L42 28 Z" fill="#4a2a4a"/>
</svg>
